{
.appVersion = "3151";
.formatVersion = 3;
date = "2023-11-09 07:34:43 +0000";
familyName = "New Font";
fontMaster = (
{
id = m01;
metricValues = (
{
over = 16;
pos = 800;
},
{
over = 16;
pos = 700;
},
{
over = 16;
pos = 500;
},
{
over = -16;
},
{
over = -16;
pos = -200;
},
{
over = -16;
}
);
name = Regular;
}
);
glyphs = (
{
glyphname = A;
lastChange = "2023-11-11 10:16:01 +0000";
layers = (
{
layerId = m01;
shapes = (
{
closed = 1;
nodes = (
(420,549,o),
(511,457,o),
(511,344,cs),
(511,231,o),
(420,139,o),
(307,139,cs),
(194,139,o),
(102,231,o),
(102,344,cs),
(102,457,o),
(194,549,o),
(307,549,cs)
);
}
);
width = 600;
}
);
unicode = 65;
},
{
glyphname = B;
lastChange = "2023-11-11 10:16:08 +0000";
layers = (
{
layerId = m01;
shapes = (
{
closed = 1;
nodes = (
(806,474,o),
(435,845,o),
(435,345,cs),
(435,-155,o),
(806,216,o),
(306,216,cs),
(-194,216,o),
(177,-155,o),
(177,345,cs),
(177,845,o),
(-194,474,o),
(306,474,cs)
);
}
);
width = 600;
}
);
unicode = 66;
},
{
glyphname = C;
lastChange = "2023-11-11 10:16:22 +0000";
layers = (
{
layerId = m01;
shapes = (
{
closed = 1;
nodes = (
(350,702,o),
(385,674,o),
(385,619,cs),
(385,519,o),
(245,459,o),
(245,369,cs),
(245,279,o),
(385,219,o),
(385,119,cs),
(385,9,o),
(245,9,o),
(245,119,cs),
(245,219,o),
(385,279,o),
(385,369,cs),
(385,459,o),
(245,519,o),
(245,619,cs),
(245,674,o),
(280,701,o),
(315,701,cs)
);
}
);
width = 600;
}
);
unicode = 67;
},
{
glyphname = D;
lastChange = "2023-11-11 10:16:32 +0000";
layers = (
{
layerId = m01;
shapes = (
{
closed = 1;
nodes = (
(806,434,o),
(395,845,o),
(395,345,cs),
(395,295,o),
(356,256,o),
(306,256,cs),
(-194,256,o),
(217,-155,o),
(217,345,cs),
(217,395,o),
(256,434,o),
(306,434,cs)
);
}
);
width = 600;
}
);
unicode = 68;
},
{
glyphname = E;
lastChange = "2023-11-11 10:15:45 +0000";
layers = (
{
layerId = m01;
shapes = (
{
closed = 1;
nodes = (
(351,569,o),
(424,569,o),
(470,522,cs),
(519,472,o),
(520,400,o),
(459,354,c),
(523,305,o),
(523,232,o),
(477,185,cs),
(428,136,o),
(354,137,o),
(306,200,c),
(257,136,o),
(190,131,o),
(134,186,cs),
(89,232,o),
(88,305,o),
(152,354,c),
(92,400,o),
(91,473,o),
(140,522,cs),
(187,569,o),
(260,569,o),
(305,507,c)
);
}
);
width = 600;
}
);
unicode = 69;
},
{
glyphname = F;
lastChange = "2023-11-11 10:16:41 +0000";
layers = (
{
layerId = m01;
shapes = (
{
closed = 1;
nodes = (
(382,497,o),
(424,569,o),
(470,522,cs),
(519,472,o),
(449,430,o),
(449,354,cs),
(449,273,o),
(523,232,o),
(477,185,cs),
(428,136,o),
(385,210,o),
(306,210,cs),
(225,210,o),
(190,131,o),
(134,186,cs),
(89,232,o),
(162,273,o),
(162,354,cs),
(162,430,o),
(91,473,o),
(140,522,cs),
(187,569,o),
(228,497,o),
(305,497,cs)
);
}
);
width = 600;
}
);
unicode = 70;
},
{
glyphname = G;
lastChange = "2023-11-11 10:16:51 +0000";
layers = (
{
layerId = m01;
shapes = (
{
closed = 1;
nodes = (
(331,563,o),
(381,576,o),
(420,554,cs),
(458,532,o),
(472,482,o),
(450,442,c),
(495,441,o),
(531,405,o),
(531,360,cs),
(531,315,o),
(495,279,o),
(449,278,c),
(472,238,o),
(458,188,o),
(420,166,cs),
(380,143,o),
(331,157,o),
(307,196,c),
(284,157,o),
(234,143,o),
(195,166,cs),
(156,189,o),
(143,238,o),
(166,279,c),
(120,279,o),
(83,315,o),
(83,360,cs),
(83,405,o),
(120,441,o),
(167,441,c),
(143,482,o),
(156,532,o),
(195,554,c),
(234,577,o),
(284,563,o),
(307,524,c)
);
}
);
width = 600;
}
);
unicode = 71;
},
{
glyphname = H;
lastChange = "2023-11-11 10:16:57 +0000";
layers = (
{
layerId = m01;
shapes = (
{
closed = 1;
nodes = (
(410,589,o),
(461,457,o),
(461,344,cs),
(461,231,o),
(410,99,o),
(307,99,cs),
(204,99,o),
(152,231,o),
(152,344,cs),
(152,457,o),
(204,589,o),
(307,589,cs)
);
}
);
width = 600;
}
);
unicode = 72;
},
{
glyphname = I;
lastChange = "2023-11-11 10:17:08 +0000";
layers = (
{
layerId = m01;
shapes = (
{
closed = 1;
nodes = (
(359,601,o),
(403,567,o),
(403,498,cs),
(403,373,o),
(227,311,o),
(227,186,cs),
(227,49,o),
(403,49,o),
(403,186,cs),
(403,311,o),
(227,373,o),
(227,498,cs),
(227,566,o),
(271,601,o),
(315,601,cs)
);
}
);
width = 600;
}
);
unicode = 73;
},
{
glyphname = J;
lastChange = "2023-11-11 10:17:20 +0000";
layers = (
{
layerId = m01;
shapes = (
{
closed = 1;
nodes = (
(396,600,o),
(483,566,o),
(483,498,cs),
(483,373,o),
(127,311,o),
(127,186,cs),
(127,49,o),
(483,49,o),
(483,186,cs),
(483,311,o),
(127,373,o),
(127,498,cs),
(127,567,o),
(218,601,o),
(308,601,cs)
);
}
);
width = 600;
}
);
unicode = 74;
},
{
glyphname = K;
lastChange = "2023-11-14 18:12:04 +0000";
layers = (
{
layerId = m01;
shapes = (
{
closed = 0;
nodes = (
(282,563,l),
(342,563,ls),
(353,563,o),
(362,554,o),
(362,543,cs),
(362,532,o),
(353,523,o),
(342,523,cs),
(222,523,ls),
(211,523,o),
(202,514,o),
(202,503,cs),
(202,492,o),
(211,483,o),
(222,483,cs),
(422,483,ls),
(433,483,o),
(442,474,o),
(442,463,cs),
(442,452,o),
(433,443,o),
(422,443,cs),
(142,443,ls),
(131,443,o),
(122,434,o),
(122,423,cs),
(122,412,o),
(131,403,o),
(142,403,cs),
(502,403,ls),
(513,403,o),
(522,394,o),
(522,383,cs),
(522,372,o),
(513,363,o),
(502,363,cs),
(62,363,ls),
(51,363,o),
(42,354,o),
(42,343,cs),
(42,332,o),
(51,323,o),
(62,323,cs),
(422,323,ls),
(433,323,o),
(442,314,o),
(442,303,cs),
(442,292,o),
(433,283,o),
(422,283,cs),
(142,283,ls),
(131,283,o),
(122,274,o),
(122,263,cs),
(122,252,o),
(131,243,o),
(142,243,cs),
(342,243,ls),
(353,243,o),
(362,234,o),
(362,223,cs),
(362,212,o),
(353,203,o),
(342,203,cs),
(222,203,ls),
(211,203,o),
(202,194,o),
(202,183,cs),
(202,172,o),
(211,163,o),
(222,163,cs),
(282,163,l)
);
}
);
width = 600;
}
);
unicode = 75;
},
{
glyphname = L;
lastChange = "2023-11-11 10:17:32 +0000";
layers = (
{
layerId = m01;
shapes = (
{
closed = 1;
nodes = (
(420,499,o),
(541,447,o),
(541,344,cs),
(541,241,o),
(420,189,o),
(307,189,cs),
(194,189,o),
(72,241,o),
(72,344,cs),
(72,447,o),
(194,499,o),
(307,499,cs)
);
}
);
width = 600;
}
);
unicode = 76;
},
{
glyphname = O;
lastChange = "2023-11-14 18:13:17 +0000";
layers = (
{
layerId = m01;
shapes = (
{
closed = 0;
nodes = (
(282,563,l),
(402,563,ls),
(413,563,o),
(422,554,o),
(422,543,cs),
(422,532,o),
(413,523,o),
(402,523,cs),
(162,523,ls),
(151,523,o),
(142,514,o),
(142,503,cs),
(142,492,o),
(151,483,o),
(162,483,cs),
(452,483,ls),
(463,483,o),
(472,474,o),
(472,463,cs),
(472,452,o),
(463,443,o),
(452,443,cs),
(112,443,ls),
(101,443,o),
(92,434,o),
(92,423,cs),
(92,412,o),
(101,403,o),
(112,403,cs),
(502,403,ls),
(513,403,o),
(522,394,o),
(522,383,cs),
(522,372,o),
(513,363,o),
(502,363,cs),
(62,363,ls),
(51,363,o),
(42,354,o),
(42,343,cs),
(42,332,o),
(51,323,o),
(62,323,cs),
(452,323,ls),
(463,323,o),
(472,314,o),
(472,303,cs),
(472,292,o),
(463,283,o),
(452,283,cs),
(112,283,ls),
(101,283,o),
(92,274,o),
(92,263,cs),
(92,252,o),
(101,243,o),
(112,243,cs),
(402,243,ls),
(413,243,o),
(422,234,o),
(422,223,cs),
(422,212,o),
(413,203,o),
(402,203,cs),
(162,203,ls),
(151,203,o),
(142,194,o),
(142,183,cs),
(142,172,o),
(151,163,o),
(162,163,cs),
(282,163,l)
);
}
);
width = 600;
}
);
unicode = 79;
},
{
glyphname = P;
lastChange = "2023-11-14 18:14:38 +0000";
layers = (
{
layerId = m01;
shapes = (
{
closed = 0;
nodes = (
(152,563,l),
(302,563,ls),
(313,563,o),
(322,554,o),
(322,543,cs),
(322,532,o),
(313,523,o),
(302,523,cs),
(172,523,ls),
(161,523,o),
(152,514,o),
(152,503,cs),
(152,492,o),
(161,483,o),
(172,483,cs),
(302,483,ls),
(313,483,o),
(322,474,o),
(322,463,cs),
(322,452,o),
(313,443,o),
(302,443,cs),
(172,443,ls),
(161,443,o),
(152,434,o),
(152,423,cs),
(152,412,o),
(161,403,o),
(172,403,cs),
(302,403,ls),
(313,403,o),
(322,394,o),
(322,383,cs),
(322,372,o),
(313,363,o),
(302,363,cs),
(172,363,ls),
(161,363,o),
(152,354,o),
(152,343,cs),
(152,332,o),
(161,323,o),
(172,323,cs),
(302,323,ls),
(313,323,o),
(322,314,o),
(322,303,cs),
(322,292,o),
(313,283,o),
(302,283,cs),
(172,283,ls),
(161,283,o),
(152,274,o),
(152,263,cs),
(152,252,o),
(161,243,o),
(172,243,cs),
(302,243,ls),
(313,243,o),
(322,234,o),
(322,223,cs),
(322,212,o),
(313,203,o),
(302,203,cs),
(172,203,ls),
(161,203,o),
(152,194,o),
(152,183,cs),
(152,172,o),
(161,163,o),
(172,163,cs),
(322,163,l)
);
}
);
width = 600;
}
);
unicode = 80;
},
{
glyphname = Q;
lastChange = "2023-11-14 19:27:43 +0000";
layers = (
{
layerId = m01;
shapes = (
{
closed = 0;
nodes = (
(117,131,l),
(217,131,o),
(289,250,o),
(289,380,cs),
(289,460,o),
(263,552,o),
(213,552,cs),
(163,552,o),
(137,460,o),
(137,380,cs),
(137,250,o),
(209,131,o),
(309,131,cs),
(409,131,o),
(481,250,o),
(481,380,cs),
(481,460,o),
(455,552,o),
(405,552,cs),
(355,552,o),
(329,460,o),
(329,380,cs),
(329,250,o),
(401,131,o),
(501,131,cs)
);
}
);
width = 600;
}
);
unicode = 81;
},
{
glyphname = R;
lastChange = "2023-11-14 18:40:01 +0000";
layers = (
{
layerId = m01;
shapes = (
{
closed = 1;
nodes = (
(76,298,o),
(65,281,o),
(65,262,cs),
(65,204,o),
(169,158,o),
(297,158,cs),
(424,158,o),
(528,204,o),
(528,262,cs),
(528,281,o),
(517,297,o),
(492,313,c),
(517,328,o),
(528,347,o),
(528,366,cs),
(528,385,o),
(517,401,o),
(492,417,c),
(517,432,o),
(528,450,o),
(528,469,cs),
(528,526,o),
(424,572,o),
(297,572,cs),
(169,572,o),
(65,526,o),
(65,469,cs),
(65,450,o),
(76,432,o),
(101,417,c),
(76,401,o),
(65,385,o),
(65,366,cs),
(65,347,o),
(76,328,o),
(101,313,c)
);
}
);
width = 600;
}
);
unicode = 82;
},
{
glyphname = S;
lastChange = "2023-11-14 19:29:07 +0000";
layers = (
{
layerId = m01;
shapes = (
{
closed = 1;
nodes = (
(806,429,o),
(390,845,o),
(390,345,cs),
(390,-155,o),
(806,261,o),
(306,261,cs),
(-194,261,o),
(222,-155,o),
(222,345,cs),
(222,845,o),
(-194,429,o),
(306,429,cs)
);
}
);
width = 600;
}
);
unicode = 83;
},
{
glyphname = T;
lastChange = "2023-11-14 19:29:05 +0000";
layers = (
{
layerId = m01;
shapes = (
{
closed = 1;
nodes = (
(806,429,o),
(390,845,o),
(390,345,cs),
(390,295,o),
(356,261,o),
(306,261,cs),
(-194,261,o),
(222,-155,o),
(222,345,cs),
(222,395,o),
(256,429,o),
(306,429,cs)
);
}
);
width = 600;
}
);
unicode = 84;
},
{
glyphname = U;
lastChange = "2023-11-14 19:31:40 +0000";
layers = (
{
layerId = m01;
shapes = (
{
closed = 1;
nodes = (
(86,302,o),
(65,285,o),
(65,260,cs),
(65,204,o),
(169,168,o),
(297,168,cs),
(424,168,o),
(528,204,o),
(528,260,cs),
(528,285,o),
(507,301,o),
(472,313,c),
(507,324,o),
(528,343,o),
(528,366,cs),
(528,389,o),
(507,405,o),
(472,417,c),
(507,428,o),
(528,446,o),
(528,471,cs),
(528,526,o),
(424,562,o),
(297,562,cs),
(169,562,o),
(65,526,o),
(65,471,cs),
(65,446,o),
(86,428,o),
(121,417,c),
(86,405,o),
(65,389,o),
(65,366,cs),
(65,343,o),
(86,324,o),
(121,313,c)
);
}
);
width = 600;
}
);
unicode = 85;
},
{
glyphname = V;
lastChange = "2023-11-14 19:36:32 +0000";
layers = (
{
annotations = (
{
pos = (602,105);
type = Text;
},
{
pos = (439,82);
type = Text;
}
);
layerId = m01;
shapes = (
{
closed = 1;
nodes = (
(347,559,o),
(424,569,o),
(470,522,cs),
(519,472,o),
(510,396,o),
(449,354,c),
(513,309,o),
(523,232,o),
(477,185,cs),
(428,136,o),
(350,147,o),
(306,210,c),
(261,146,o),
(190,131,o),
(134,186,cs),
(89,232,o),
(98,309,o),
(162,354,c),
(102,396,o),
(91,473,o),
(140,522,cs),
(187,569,o),
(264,559,o),
(305,497,c)
);
}
);
width = 600;
}
);
unicode = 86;
},
{
glyphname = a;
lastChange = "2023-11-17 01:52:54 +0000";
layers = (
{
layerId = m01;
shapes = (
{
closed = 1;
nodes = (
(415,505,o),
(506,413,o),
(506,300,cs),
(506,187,o),
(415,95,o),
(302,95,cs),
(189,95,o),
(97,187,o),
(97,300,cs),
(97,413,o),
(189,505,o),
(302,505,cs)
);
},
{
closed = 1;
nodes = (
(372,55,o),
(428,164,o),
(428,300,cs),
(428,436,o),
(372,545,o),
(301,545,cs),
(230,545,o),
(174,436,o),
(174,300,cs),
(174,164,o),
(230,55,o),
(301,55,cs)
);
},
{
closed = 1;
nodes = (
(801,384,o),
(385,800,o),
(385,300,cs),
(385,250,o),
(351,216,o),
(301,216,cs),
(-199,216,o),
(217,-200,o),
(217,300,cs),
(217,350,o),
(251,384,o),
(301,384,cs)
);
},
{
closed = 1;
nodes = (
(801,384,o),
(385,800,o),
(385,300,cs),
(385,-200,o),
(801,216,o),
(301,216,cs),
(-199,216,o),
(217,-200,o),
(217,300,cs),
(217,800,o),
(-199,384,o),
(301,384,cs)
);
},
{
closed = 1;
nodes = (
(342,507,o),
(419,517,o),
(465,470,cs),
(514,420,o),
(505,344,o),
(444,302,c),
(508,257,o),
(518,180,o),
(472,133,cs),
(423,84,o),
(345,95,o),
(301,158,c),
(256,94,o),
(185,79,o),
(129,134,cs),
(84,180,o),
(93,257,o),
(157,302,c),
(97,344,o),
(86,421,o),
(135,470,cs),
(182,517,o),
(259,507,o),
(300,445,c)
);
},
{
closed = 1;
nodes = (
(321,499,o),
(372,521,o),
(414,494,cs),
(455,468,o),
(466,414,o),
(440,378,c),
(481,381,o),
(525,349,o),
(525,300,cs),
(525,251,o),
(481,219,o),
(439,222,c),
(466,186,o),
(455,133,o),
(414,106,cs),
(370,77,o),
(321,101,o),
(301,140,c),
(282,101,o),
(231,78,o),
(189,106,cs),
(147,134,o),
(137,186,o),
(164,223,c),
(122,219,o),
(77,251,o),
(77,300,cs),
(77,349,o),
(122,381,o),
(165,377,c),
(137,414,o),
(146,468,o),
(189,494,cs),
(232,521,o),
(282,499,o),
(301,460,c)
);
},
{
closed = 1;
nodes = (
(333,533,o),
(353,496,o),
(353,462,cs),
(353,439,o),
(338,381,o),
(321,338,c),
(350,375,o),
(394,415,o),
(414,427,cs),
(447,446,o),
(485,445,o),
(502,416,cs),
(518,388,o),
(496,352,o),
(467,335,cs),
(447,323,o),
(390,306,o),
(344,300,c),
(390,294,o),
(447,278,o),
(467,267,cs),
(500,248,o),
(519,215,o),
(504,185,cs),
(488,157,o),
(445,158,o),
(415,174,cs),
(395,185,o),
(351,225,o),
(321,262,c),
(338,219,o),
(351,160,o),
(352,138,cs),
(351,100,o),
(332,67,o),
(298,67,cs),
(266,67,o),
(246,105,o),
(246,138,cs),
(246,161,o),
(262,218,o),
(279,262,c),
(250,225,o),
(206,185,o),
(187,173,cs),
(153,154,o),
(115,154,o),
(98,184,cs),
(82,212,o),
(104,248,o),
(133,265,cs),
(153,277,o),
(209,294,o),
(256,300,c),
(209,306,o),
(153,323,o),
(134,334,cs),
(100,354,o),
(81,387,o),
(99,417,cs),
(115,445,o),
(157,444,o),
(186,428,cs),
(206,416,o),
(249,376,o),
(278,338,c),
(260,381,o),
(247,439,o),
(247,462,cs),
(247,500,o),
(267,533,o),
(300,533,cs)
);
},
{
closed = 1;
nodes = (
(345,405,l),
(463,461,l),
(407,343,l),
(531,300,l),
(407,255,l),
(463,138,l),
(345,194,l),
(301,70,l),
(258,194,l),
(139,138,l),
(196,255,l),
(72,300,l),
(196,343,l),
(139,461,l),
(258,405,l),
(301,529,l)
);
},
{
closed = 1;
nodes = (
(350,496,l),
(350,363,l),
(479,403,l),
(508,313,l),
(379,270,l),
(458,159,l),
(380,104,l),
(301,211,l),
(224,104,l),
(144,159,l),
(224,270,l),
(95,313,l),
(124,403,l),
(254,361,l),
(253,496,l)
);
},
{
closed = 1;
nodes = (
(325,426,o),
(382,414,o),
(465,463,c),
(415,381,o),
(428,324,o),
(533,300,c),
(428,276,o),
(415,219,o),
(465,136,c),
(382,186,o),
(325,174,o),
(301,68,c),
(278,174,o),
(221,186,o),
(138,136,c),
(188,219,o),
(175,276,o),
(69,300,c),
(175,324,o),
(188,381,o),
(138,463,c),
(221,414,o),
(278,426,o),
(301,531,c)
);
}
);
width = 600;
}
);
unicode = 97;
},
{
glyphname = b;
lastChange = "2023-11-17 02:04:13 +0000";
layers = (
{
layerId = m01;
shapes = (
{
closed = 1;
nodes = (
(345,460,o),
(372,521,o),
(414,494,c),
(455,468,o),
(422,418,o),
(440,378,cs),
(457,341,o),
(525,349,o),
(525,300,c),
(525,251,o),
(456,260,o),
(439,222,cs),
(420,181,o),
(455,133,o),
(414,106,c),
(370,77,o),
(345,140,o),
(301,140,cs),
(258,140,o),
(231,78,o),
(189,106,c),
(147,134,o),
(183,181,o),
(164,223,cs),
(147,261,o),
(77,251,o),
(77,300,c),
(77,349,o),
(147,338,o),
(165,377,cs),
(184,419,o),
(146,468,o),
(189,494,c),
(232,521,o),
(258,460,o),
(301,460,cs)
);
}
);
width = 600;
}
);
unicode = 98;
},
{
glyphname = c;
lastChange = "2023-11-17 02:06:40 +0000";
layers = (
{
layerId = m01;
shapes = (
{
closed = 1;
nodes = (
(333,533,o),
(353,496,o),
(353,462,cs),
(353,399,o),
(280,359,o),
(321,338,cs),
(363,317,o),
(381,404,o),
(414,427,cs),
(444,448,o),
(485,445,o),
(502,416,c),
(518,388,o),
(495,352,o),
(467,335,cs),
(433,315,o),
(344,346,o),
(344,300,cs),
(344,254,o),
(426,289,o),
(467,267,cs),
(501,249,o),
(519,215,o),
(504,185,c),
(488,157,o),
(445,157,o),
(415,174,cs),
(377,195,o),
(364,282,o),
(321,262,cs),
(279,243,o),
(352,180,o),
(352,138,cs),
(352,100,o),
(332,67,o),
(298,67,c),
(266,67,o),
(246,105,o),
(246,138,cs),
(246,181,o),
(320,238,o),
(279,262,cs),
(238,286,o),
(225,196,o),
(187,173,cs),
(154,153,o),
(115,154,o),
(98,184,c),
(82,212,o),
(102,250,o),
(133,265,cs),
(170,283,o),
(256,253,o),
(256,300,cs),
(256,347,o),
(179,309,o),
(134,334,cs),
(100,353,o),
(81,387,o),
(99,417,c),
(115,445,o),
(157,447,o),
(186,428,cs),
(223,404,o),
(234,318,o),
(278,338,cs),
(320,357,o),
(247,399,o),
(247,462,cs),
(247,500,o),
(267,533,o),
(300,533,c)
);
}
);
width = 600;
}
);
unicode = 99;
},
{
glyphname = nine_one;
lastChange = "2023-11-14 23:16:22 +0000";
layers = (
{
layerId = m01;
shapes = (
{
closed = 1;
nodes = (
(86,302,o),
(65,285,o),
(65,260,cs),
(65,204,o),
(169,168,o),
(297,168,cs),
(424,168,o),
(528,204,o),
(528,260,cs),
(528,285,o),
(507,301,o),
(472,313,c),
(507,324,o),
(528,343,o),
(528,366,cs),
(528,389,o),
(507,405,o),
(472,417,c),
(507,428,o),
(528,446,o),
(528,471,cs),
(528,526,o),
(424,562,o),
(297,562,cs),
(169,562,o),
(65,526,o),
(65,471,cs),
(65,446,o),
(86,428,o),
(121,417,c),
(86,405,o),
(65,389,o),
(65,366,cs),
(65,343,o),
(86,324,o),
(121,313,c)
);
}
);
width = 600;
}
);
metricLeft = nine;
metricRight = nine;
},
{
glyphname = zero;
lastChange = "2023-11-17 02:00:38 +0000";
layers = (
{
layerId = m01;
shapes = (
{
closed = 1;
nodes = (
(415,505,o),
(506,413,o),
(506,300,cs),
(506,187,o),
(415,95,o),
(302,95,cs),
(189,95,o),
(97,187,o),
(97,300,cs),
(97,413,o),
(189,505,o),
(302,505,cs)
);
}
);
width = 600;
}
);
unicode = 48;
},
{
glyphname = one;
lastChange = "2023-11-17 02:00:16 +0000";
layers = (
{
layerId = m01;
shapes = (
{
closed = 1;
nodes = (
(372,55,o),
(428,164,o),
(428,300,cs),
(428,436,o),
(372,545,o),
(301,545,cs),
(230,545,o),
(174,436,o),
(174,300,cs),
(174,164,o),
(230,55,o),
(301,55,cs)
);
}
);
width = 600;
}
);
unicode = 49;
},
{
glyphname = two;
lastChange = "2023-11-17 01:59:49 +0000";
layers = (
{
layerId = m01;
shapes = (
{
closed = 1;
nodes = (
(801,384,o),
(385,800,o),
(385,300,cs),
(385,250,o),
(351,216,o),
(301,216,cs),
(-199,216,o),
(217,-200,o),
(217,300,cs),
(217,350,o),
(251,384,o),
(301,384,cs)
);
}
);
width = 600;
}
);
unicode = 50;
},
{
glyphname = three;
lastChange = "2023-11-17 01:59:38 +0000";
layers = (
{
layerId = m01;
shapes = (
{
closed = 1;
nodes = (
(801,384,o),
(385,800,o),
(385,300,cs),
(385,-200,o),
(801,216,o),
(301,216,cs),
(-199,216,o),
(217,-200,o),
(217,300,cs),
(217,800,o),
(-199,384,o),
(301,384,cs)
);
}
);
width = 600;
}
);
unicode = 51;
},
{
glyphname = four;
lastChange = "2023-11-17 02:00:32 +0000";
layers = (
{
layerId = m01;
shapes = (
{
closed = 1;
nodes = (
(342,507,o),
(419,517,o),
(465,470,cs),
(514,420,o),
(505,344,o),
(444,302,c),
(508,257,o),
(518,180,o),
(472,133,cs),
(423,84,o),
(345,95,o),
(301,158,c),
(256,94,o),
(185,79,o),
(129,134,cs),
(84,180,o),
(93,257,o),
(157,302,c),
(97,344,o),
(86,421,o),
(135,470,cs),
(182,517,o),
(259,507,o),
(300,445,c)
);
}
);
width = 600;
}
);
unicode = 52;
},
{
glyphname = five;
lastChange = "2023-11-17 02:00:28 +0000";
layers = (
{
layerId = m01;
shapes = (
{
closed = 1;
nodes = (
(321,499,o),
(372,521,o),
(414,494,cs),
(455,468,o),
(466,414,o),
(440,378,c),
(481,381,o),
(525,349,o),
(525,300,cs),
(525,251,o),
(481,219,o),
(439,222,c),
(466,186,o),
(455,133,o),
(414,106,cs),
(370,77,o),
(321,101,o),
(301,140,c),
(282,101,o),
(231,78,o),
(189,106,cs),
(147,134,o),
(137,186,o),
(164,223,c),
(122,219,o),
(77,251,o),
(77,300,cs),
(77,349,o),
(122,381,o),
(165,377,c),
(137,414,o),
(146,468,o),
(189,494,cs),
(232,521,o),
(282,499,o),
(301,460,c)
);
}
);
width = 600;
}
);
unicode = 53;
},
{
glyphname = six;
lastChange = "2023-11-17 01:59:56 +0000";
layers = (
{
layerId = m01;
shapes = (
{
closed = 1;
nodes = (
(333,533,o),
(353,496,o),
(353,462,cs),
(353,439,o),
(338,381,o),
(321,338,c),
(350,375,o),
(394,415,o),
(414,427,cs),
(447,446,o),
(485,445,o),
(502,416,cs),
(518,388,o),
(496,352,o),
(467,335,cs),
(447,323,o),
(390,306,o),
(344,300,c),
(390,294,o),
(447,278,o),
(467,267,cs),
(500,248,o),
(519,215,o),
(504,185,cs),
(488,157,o),
(445,158,o),
(415,174,cs),
(395,185,o),
(351,225,o),
(321,262,c),
(338,219,o),
(351,160,o),
(352,138,cs),
(351,100,o),
(332,67,o),
(298,67,cs),
(266,67,o),
(246,105,o),
(246,138,cs),
(246,161,o),
(262,218,o),
(279,262,c),
(250,225,o),
(206,185,o),
(187,173,cs),
(153,154,o),
(115,154,o),
(98,184,cs),
(82,212,o),
(104,248,o),
(133,265,cs),
(153,277,o),
(209,294,o),
(256,300,c),
(209,306,o),
(153,323,o),
(134,334,cs),
(100,354,o),
(81,387,o),
(99,417,cs),
(115,445,o),
(157,444,o),
(186,428,cs),
(206,416,o),
(249,376,o),
(278,338,c),
(260,381,o),
(247,439,o),
(247,462,cs),
(247,500,o),
(267,533,o),
(300,533,cs)
);
}
);
width = 600;
}
);
unicode = 54;
},
{
glyphname = seven;
lastChange = "2023-11-17 02:00:08 +0000";
layers = (
{
layerId = m01;
shapes = (
{
closed = 1;
nodes = (
(345,405,l),
(463,461,l),
(407,343,l),
(531,300,l),
(407,255,l),
(463,138,l),
(345,194,l),
(301,70,l),
(258,194,l),
(139,138,l),
(196,255,l),
(72,300,l),
(196,343,l),
(139,461,l),
(258,405,l),
(301,529,l)
);
}
);
width = 600;
}
);
unicode = 55;
},
{
glyphname = eight;
lastChange = "2023-11-17 02:00:02 +0000";
layers = (
{
layerId = m01;
shapes = (
{
closed = 1;
nodes = (
(350,496,l),
(350,363,l),
(479,403,l),
(508,313,l),
(379,270,l),
(458,159,l),
(380,104,l),
(301,211,l),
(224,104,l),
(144,159,l),
(224,270,l),
(95,313,l),
(124,403,l),
(254,361,l),
(253,496,l)
);
}
);
width = 600;
}
);
unicode = 56;
},
{
glyphname = nine;
lastChange = "2023-11-17 02:00:22 +0000";
layers = (
{
layerId = m01;
shapes = (
{
closed = 1;
nodes = (
(325,426,o),
(382,414,o),
(465,463,c),
(415,381,o),
(428,324,o),
(533,300,c),
(428,276,o),
(415,219,o),
(465,136,c),
(382,186,o),
(325,174,o),
(301,68,c),
(278,174,o),
(221,186,o),
(138,136,c),
(188,219,o),
(175,276,o),
(69,300,c),
(175,324,o),
(188,381,o),
(138,463,c),
(221,414,o),
(278,426,o),
(301,531,c)
);
}
